<?xml version="1.0" encoding="UTF-8" standalone="no"?>
<svg
   width="220.81799mm"
   height="220.81799mm"
   viewBox="0 0 220.81799 220.81799"
   version="1.1"
   id="svg8"
   inkscape:version="1.2.2 (b0a8486541, 2022-12-01)"
   sodipodi:docname="Bottom Laser Cut.svg"
   xmlns:inkscape="http://www.inkscape.org/namespaces/inkscape"
   xmlns:sodipodi="http://sodipodi.sourceforge.net/DTD/sodipodi-0.dtd"
   xmlns="http://www.w3.org/2000/svg"
   xmlns:svg="http://www.w3.org/2000/svg"
   xmlns:rdf="http://www.w3.org/1999/02/22-rdf-syntax-ns#"
   xmlns:cc="http://creativecommons.org/ns#"
   xmlns:dc="http://purl.org/dc/elements/1.1/"
   xmlns:shaper="http://www.shapertools.com/namespaces/shaper">
  <defs
     id="defs2" />
  <sodipodi:namedview
     id="base"
     pagecolor="#ffffff"
     bordercolor="#666666"
     borderopacity="1.0"
     inkscape:pageopacity="0.0"
     inkscape:pageshadow="2"
     inkscape:zoom="1"
     inkscape:cx="384"
     inkscape:cy="410"
     inkscape:document-units="mm"
     inkscape:current-layer="layer1"
     inkscape:document-rotation="0"
     showgrid="false"
     inkscape:window-width="1920"
     inkscape:window-height="1008"
     inkscape:window-x="0"
     inkscape:window-y="0"
     inkscape:window-maximized="1"
     inkscape:pagecheckerboard="0"
     inkscape:showpageshadow="2"
     inkscape:deskcolor="#d1d1d1" />
  <metadata
     id="metadata5">
    <rdf:RDF>
      <cc:Work
         rdf:about="">
        <dc:format>image/svg+xml</dc:format>
        <dc:type
           rdf:resource="http://purl.org/dc/dcmitype/StillImage" />
      </cc:Work>
    </rdf:RDF>
  </metadata>
  <g
     inkscape:groupmode="layer"
     id="layer2"
     inkscape:label="Lijn sensoren"
     style="display:inline"
     sodipodi:insensitive="true">
    <rect
       style="fill:#000000;stroke-width:0.670357;stroke-dasharray:none"
       id="rect1091-6-7"
       width="20"
       height="20"
       x="100.39093"
       y="7.717"
       inkscape:transform-center-y="-92.692057" />
    <rect
       style="fill:#000000;stroke-width:0.670357;stroke-dasharray:none"
       id="rect14264-5"
       width="20"
       height="20"
       x="55.97142"
       y="38.814438"
       inkscape:transform-center-y="-87.102043"
       transform="rotate(-20)"
       inkscape:transform-center-x="31.70255" />
    <rect
       style="fill:#000000;stroke-width:0.670357;stroke-dasharray:none"
       id="rect14266-3"
       width="20"
       height="20"
       x="3.5947824"
       y="52.844112"
       inkscape:transform-center-y="-71.006235"
       transform="rotate(-40)"
       inkscape:transform-center-x="59.581304" />
    <rect
       style="fill:#000000;stroke-width:0.670357;stroke-dasharray:none"
       id="rect14268-5"
       width="20"
       height="20"
       x="-50.421589"
       y="48.113819"
       inkscape:transform-center-y="-46.346029"
       transform="rotate(-60)"
       inkscape:transform-center-x="80.273672" />
    <rect
       style="fill:#000000;stroke-width:0.670357;stroke-dasharray:none"
       id="rect14270-6"
       width="20"
       height="20"
       x="147.29185"
       y="60.409061"
       inkscape:transform-center-y="-92.692057" />
    <rect
       style="fill:#000000;stroke-width:0.670357;stroke-dasharray:none"
       id="rect14272-2"
       width="20"
       height="20"
       x="147.29185"
       y="85.40905"
       inkscape:transform-center-y="-92.692057" />
    <rect
       style="fill:#000000;stroke-width:0.670357;stroke-dasharray:none"
       id="rect14274-9"
       width="20"
       height="20"
       x="100.39093"
       y="-213.10112"
       inkscape:transform-center-y="92.692057"
       transform="scale(1,-1)" />
    <rect
       style="fill:#000000;stroke-width:0.670357;stroke-dasharray:none"
       id="rect14276-1"
       width="20"
       height="20"
       x="131.49567"
       y="-168.68671"
       inkscape:transform-center-y="87.102041"
       transform="matrix(0.93969263,0.34202013,0.34202013,-0.93969263,0,0)"
       inkscape:transform-center-x="31.702553" />
    <rect
       style="fill:#000000;stroke-width:0.670357;stroke-dasharray:none"
       id="rect14278-2"
       width="20"
       height="20"
       x="145.53394"
       y="-116.3124"
       inkscape:transform-center-y="71.006227"
       transform="matrix(0.76604445,0.64278761,0.64278761,-0.76604445,0,0)"
       inkscape:transform-center-x="59.581308" />
    <rect
       style="fill:#000000;stroke-width:0.670357;stroke-dasharray:none"
       id="rect14280-7"
       width="20"
       height="20"
       x="140.81252"
       y="-62.295231"
       inkscape:transform-center-y="46.346031"
       transform="matrix(0.5,0.8660254,0.8660254,-0.5,0,0)"
       inkscape:transform-center-x="80.27367" />
    <rect
       style="fill:#000000;stroke-width:0.670357;stroke-dasharray:none"
       id="rect14282-0"
       width="20"
       height="20"
       x="147.29185"
       y="-160.40906"
       inkscape:transform-center-y="92.692054"
       transform="scale(1,-1)" />
    <rect
       style="fill:#000000;stroke-width:0.670357;stroke-dasharray:none"
       id="rect14284-9"
       width="20"
       height="20"
       x="147.29185"
       y="-135.40906"
       inkscape:transform-center-y="92.69205"
       transform="scale(1,-1)" />
  </g>
  <g
     inkscape:label="Layer 1"
     inkscape:groupmode="layer"
     id="layer1">
    <path
       d="m 180.00644,165.30027 h 19.41288 a 104.83882,105.0004 0 1 1 0,-110.000427 h -19.41288 v 0 l -0.10577,0.109082 -0.10591,0.115539 -0.10607,0.121994 -0.10621,0.128446 -0.10636,0.134891 -0.10651,0.141327 -0.10663,0.147762 -0.10678,0.154181 -0.10689,0.160595 -0.10704,0.166993 -0.10713,0.173379 -0.10726,0.179748 -0.10735,0.186106 -0.10746,0.192444 -0.10753,0.19876 -0.10762,0.205063 -0.10767,0.211342 -0.10775,0.217598 -0.10777,0.223832 -0.10783,0.230046 -0.10783,0.236225 -0.10787,0.242387 -0.10784,0.248519 -0.10786,0.254619 -0.1078,0.260693 -0.10778,0.266733 -0.21535,0.55147 -0.21501,0.57525 -0.21453,0.598753 -0.21394,0.621964 -0.21318,0.644866 -0.2123,0.667451 -0.21125,0.689701 -0.21006,0.711611 -0.20872,0.733161 -0.20722,0.754346 -0.20551,0.775147 -0.2037,0.795565 -0.20167,0.815579 -0.19947,0.835184 -0.19711,0.854374 -0.19457,0.873136 -0.19185,0.891462 -0.18894,0.909347 -0.18583,0.926777 -0.18258,0.943751 -0.17911,0.960258 -0.17547,0.976295 -0.17166,0.991849 -0.16765,1.006925 -0.16347,1.021498 -0.15911,1.035586 -0.15456,1.049166 -0.14983,1.062244 -0.14496,1.074804 -0.13991,1.086851 -0.13467,1.098384 -0.12928,1.109382 -0.12374,1.119863 -0.11804,1.129803 -0.11219,1.139214 -0.1062,1.148086 -0.10006,1.156412 -0.0939,1.164205 -0.0874,1.171443 -0.081,1.178136 -0.0744,1.184273 -0.0676,1.189866 -0.0608,1.194905 -0.0539,1.19937 -0.0468,1.20331 -0.0398,1.20667 -0.0326,1.20946 -0.0254,1.21174 -0.0182,1.2134 -0.0109,1.21453 -0.004,1.21508 0.004,1.21509 0.0109,1.21453 0.0182,1.2134 0.0254,1.21174 0.0326,1.20947 0.0398,1.20666 0.0468,1.2033 0.0539,1.19938 0.0608,1.1949 0.0676,1.18986 0.0744,1.1843 0.081,1.17813 0.0874,1.17144 0.0939,1.1642 0.10006,1.15641 0.1062,1.14808 0.11219,1.13921 0.11804,1.12983 0.12374,1.11985 0.12928,1.10938 0.13467,1.09838 0.13991,1.08685 0.14496,1.0748 0.14983,1.06224 0.15456,1.04919 0.15911,1.03558 0.16347,1.0215 0.16765,1.00692 0.17166,0.99184 0.17547,0.97629 0.17911,0.96025 0.18258,0.94376 0.18583,0.92679 0.18894,0.90934 0.19185,0.89146 0.19457,0.87313 0.19711,0.85437 0.19947,0.83518 0.20167,0.81558 0.2037,0.79556 0.20551,0.77515 0.20723,0.75434 0.20872,0.73318 0.21006,0.71161 0.21125,0.6897 0.21229,0.66745 0.21318,0.64486 0.21394,0.62196 0.21453,0.59875 0.21501,0.57525 0.21535,0.55147 0.10779,0.26673 0.10779,0.26069 0.10787,0.25462 0.10784,0.24852 0.10787,0.2424 0.10783,0.23623 0.10784,0.23004 0.10777,0.22383 0.10774,0.2176 0.10768,0.21134 0.10762,0.20508 0.10752,0.19876 0.10747,0.19244 0.10735,0.1861 0.10726,0.17975 0.10714,0.17338 0.10703,0.16699 0.1069,0.16059 0.10677,0.15418 0.10664,0.14776 0.1065,0.14133 0.10636,0.13489 0.10621,0.12844 0.10608,0.12199 0.1059,0.11554 z"
       fill="#000000"
       shaper:cutDepth="0.003"
       shaper:pathType="exterior"
       vector-effect="non-scaling-stroke"
       id="path1089"
       style="fill:none;stroke:#ff0000;stroke-width:0.8;stroke-miterlimit:4;stroke-dasharray:none;stroke-opacity:1" />
    <path
       d="m 33.17543,90.300052 a 2.1000006,2.1000006 0 1 0 4.2,0 2.1000006,2.1000006 0 1 0 -4.2,0 z"
       fill="#ffffff"
       shaper:cutDepth="0.003"
       shaper:pathType="interior"
       stroke="#000000"
       vector-effect="non-scaling-stroke"
       id="path1099"
       style="fill:none;stroke:#ff0000;stroke-width:0.8;stroke-miterlimit:4;stroke-dasharray:none;stroke-opacity:1" />
    <path
       d="m 33.17543,130.30006 a 2.1000006,2.1000006 0 1 0 4.2,0 2.1000006,2.1000006 0 1 0 -4.2,0 z"
       fill="#ffffff"
       shaper:cutDepth="0.003"
       shaper:pathType="interior"
       stroke="#000000"
       vector-effect="non-scaling-stroke"
       id="path1101"
       style="fill:none;stroke:#ff0000;stroke-width:0.8;stroke-miterlimit:4;stroke-dasharray:none;stroke-opacity:1" />
    <path
       d="m 162.99594,55.348144 a 2.1,2.1 0 1 0 4.2,0 2.1,2.1 0 1 0 -4.2,0 z"
       fill="#ffffff"
       shaper:cutDepth="0.003"
       shaper:pathType="interior"
       stroke="#000000"
       vector-effect="non-scaling-stroke"
       id="path1103"
       style="fill:none;stroke:#ff0000;stroke-width:0.8;stroke-miterlimit:4;stroke-dasharray:none;stroke-opacity:1" />
    <path
       d="m 128.35492,35.348144 a 2.1,2.1 0 1 0 4.2,0 2.1,2.1 0 1 0 -4.2,0 z"
       fill="#ffffff"
       shaper:cutDepth="0.003"
       shaper:pathType="interior"
       stroke="#000000"
       vector-effect="non-scaling-stroke"
       id="path1105"
       style="fill:none;stroke:#ff0000;stroke-width:0.8;stroke-miterlimit:4;stroke-dasharray:none;stroke-opacity:1" />
    <path
       d="m 162.99594,165.25197 a 2.1,2.1 0 1 0 4.2,0 2.1,2.1 0 1 0 -4.2,0 z"
       fill="#ffffff"
       shaper:cutDepth="0.003"
       shaper:pathType="interior"
       vector-effect="non-scaling-stroke"
       id="path1107"
       style="fill:none;stroke:#ff0000;stroke-width:0.8;stroke-dasharray:none;stroke-opacity:1" />
    <path
       d="m 128.35492,185.25197 a 2.1,2.1 0 1 0 4.2,0 2.1,2.1 0 1 0 -4.2,0 z"
       fill="#ffffff"
       shaper:cutDepth="0.003"
       shaper:pathType="interior"
       stroke="#000000"
       vector-effect="non-scaling-stroke"
       id="path1109"
       style="fill:none;stroke:#ff0000;stroke-width:0.8;stroke-miterlimit:4;stroke-dasharray:none;stroke-opacity:1" />
    <path
       d="m 95.67543,131.9507 a 2.1000006,2.1000006 0 1 0 4.2,0 2.1000006,2.1000006 0 1 0 -4.2,0 z"
       fill="#ffffff"
       shaper:cutDepth="0.003"
       shaper:pathType="interior"
       stroke="#000000"
       vector-effect="non-scaling-stroke"
       id="path1111"
       style="fill:none;stroke:#ff0000;stroke-width:0.8;stroke-miterlimit:4;stroke-dasharray:none;stroke-opacity:1" />
    <path
       d="m 95.67543,88.649417 a 2.1000006,2.1000006 0 1 0 4.2,0 2.1000006,2.1000006 0 1 0 -4.2,0 z"
       fill="#ffffff"
       shaper:cutDepth="0.003"
       shaper:pathType="interior"
       stroke="#000000"
       vector-effect="non-scaling-stroke"
       id="path1113"
       style="fill:none;stroke:#ff0000;stroke-width:0.8;stroke-miterlimit:4;stroke-dasharray:none;stroke-opacity:1" />
    <path
       d="m 133.17543,110.30005 a 2.1000006,2.1000006 0 1 0 4.2,0 2.1000006,2.1000006 0 1 0 -4.2,0 z"
       fill="#ffffff"
       shaper:cutDepth="0.003"
       shaper:pathType="interior"
       stroke="#000000"
       vector-effect="non-scaling-stroke"
       id="path1115"
       style="fill:none;stroke:#ff0000;stroke-width:0.8;stroke-miterlimit:4;stroke-dasharray:none;stroke-opacity:1" />
    <path
       d="m 134.20492,191.74716 a 3.9999999,3.9999999 0 0 0 -1.4641,5.4641 l 3.5,6.06218 a 3.9999999,3.9999999 0 0 0 5.4641,1.4641 l 34.64102,-20 a 3.9999999,3.9999999 0 0 0 1.4641,-5.4641 l -3.5,-6.06218 a 3.9999999,3.9999999 0 0 0 -5.4641,-1.4641 z"
       fill="#ffffff"
       shaper:cutDepth="0.003"
       shaper:pathType="interior"
       stroke="#000000"
       vector-effect="non-scaling-stroke"
       id="path1117"
       style="fill:none;stroke:#ff0000;stroke-width:0.8;stroke-miterlimit:4;stroke-dasharray:none;stroke-opacity:1" />
    <path
       d="m 168.84594,48.852954 a 3.9999999,3.9999999 0 0 0 5.4641,-1.464101 l 3.5,-6.062179 a 3.9999999,3.9999999 0 0 0 -1.4641,-5.4641 L 141.70492,15.86257 a 3.9999999,3.9999999 0 0 0 -5.4641,1.4641 l -3.5,6.06218 a 3.9999999,3.9999999 0 0 0 1.4641,5.4641 z"
       fill="#ffffff"
       shaper:cutDepth="0.003"
       shaper:pathType="interior"
       stroke="#000000"
       vector-effect="non-scaling-stroke"
       id="path1119"
       style="fill:none;stroke:#ff0000;stroke-width:0.8;stroke-miterlimit:4;stroke-dasharray:none;stroke-opacity:1" />
    <path
       d="m 27.77543,90.300052 a 3.9999999,3.9999999 0 0 0 -4,-4 h -7 a 3.9999999,3.9999999 0 0 0 -4,4 v 40.000008 a 3.9999999,3.9999999 0 0 0 4,4 h 7 a 3.9999999,3.9999999 0 0 0 4,-4 z"
       fill="#ffffff"
       shaper:cutDepth="0.003"
       shaper:pathType="interior"
       stroke="#000000"
       vector-effect="non-scaling-stroke"
       id="path1121"
       style="fill:none;stroke:#ff0000;stroke-width:0.8;stroke-miterlimit:4;stroke-dasharray:none;stroke-opacity:1" />
    <path
       d="m 182.17543,170.30006 a 2.100005,2.100005 0 1 0 4.20001,0 2.100005,2.100005 0 1 0 -4.20001,0 z"
       fill="#ffffff"
       shaper:cutDepth="0.003"
       shaper:pathType="interior"
       stroke="#000000"
       vector-effect="non-scaling-stroke"
       id="path1123"
       style="fill:none;stroke:#ff0000;stroke-width:0.8;stroke-miterlimit:4;stroke-dasharray:none;stroke-opacity:1" />
    <path
       d="m 96.27543,117.80006 h 31.5 a 1,1 0 0 0 1,-1 v -13.00001 a 1,1 0 0 0 -1,-1 h -31.5 a 1,1 0 0 0 -1,1 v 13.00001 a 1,1 0 0 0 1,1 z"
       fill="#ffffff"
       shaper:cutDepth="0.003"
       shaper:pathType="interior"
       stroke="#000000"
       vector-effect="non-scaling-stroke"
       id="path1125"
       style="fill:none;stroke:#ff0000;stroke-width:0.8;stroke-miterlimit:4;stroke-dasharray:none;stroke-opacity:1" />
    <path
       d="m 182.17543,50.30005 a 2.1,2.1 0 1 0 4.2,0 2.1,2.1 0 1 0 -4.2,0 z"
       fill="#ffffff"
       shaper:cutDepth="0.003"
       shaper:pathType="interior"
       stroke="#000000"
       vector-effect="non-scaling-stroke"
       id="path1127"
       style="fill:none;stroke:#ff0000;stroke-width:0.8;stroke-miterlimit:4;stroke-dasharray:none;stroke-opacity:1" />
    <path
       d="m 188.17544,168.20006 v 4.2 h 4.19999 v -4.2 z"
       fill="#ffffff"
       shaper:cutDepth="0.003"
       shaper:pathType="interior"
       stroke="#000000"
       vector-effect="non-scaling-stroke"
       id="path1129"
       style="fill:none;stroke:#ff0000;stroke-width:0.8;stroke-miterlimit:4;stroke-dasharray:none;stroke-opacity:1" />
    <path
       d="m 188.17543,48.200049 v 4.200002 h 4.2 v -4.200002 z"
       fill="#ffffff"
       shaper:cutDepth="0.003"
       shaper:pathType="interior"
       stroke="#000000"
       vector-effect="non-scaling-stroke"
       id="path1131"
       style="fill:none;stroke:#ff0000;stroke-width:0.8;stroke-miterlimit:4;stroke-dasharray:none;stroke-opacity:1" />
    <path
       d="m 101.17543,207.30006 a 2.1,2.1 0 1 0 4.2,0 2.1,2.1 0 1 0 -4.2,0 z"
       fill="#ffffff"
       shaper:cutDepth="0.003"
       shaper:pathType="interior"
       stroke="#000000"
       vector-effect="non-scaling-stroke"
       id="path1133"
       style="fill:none;stroke:#ff0000;stroke-width:0.8;stroke-miterlimit:4;stroke-dasharray:none;stroke-opacity:1" />
    <path
       d="m 101.17543,13.300049 a 2.1000015,2.1000015 0 1 0 4.2,0 2.1000015,2.1000015 0 1 0 -4.2,0 z"
       fill="#ffffff"
       shaper:cutDepth="0.003"
       shaper:pathType="interior"
       stroke="#000000"
       vector-effect="non-scaling-stroke"
       id="path1135"
       style="fill:none;stroke:#ff0000;stroke-width:0.8;stroke-miterlimit:4;stroke-dasharray:none;stroke-opacity:1" />
    <path
       d="m 153.02062,169.33691 -12.99038,7.49999 2.5,4.33013 12.99038,-7.5 z"
       fill="#ffffff"
       shaper:cutDepth="0.003"
       shaper:pathType="interior"
       stroke="#000000"
       vector-effect="non-scaling-stroke"
       id="path1139"
       style="fill:none;stroke:#ff0000;stroke-width:0.8;stroke-miterlimit:4;stroke-dasharray:none;stroke-opacity:1" />
    <path
       d="m 140.03024,43.763209 12.99038,7.499998 2.5,-4.330125 -12.99038,-7.500001 z"
       fill="#ffffff"
       shaper:cutDepth="0.003"
       shaper:pathType="interior"
       stroke="#000000"
       vector-effect="non-scaling-stroke"
       id="path1141"
       style="fill:none;stroke:#ff0000;stroke-width:0.8;stroke-miterlimit:4;stroke-dasharray:none;stroke-opacity:1" />
    <path
       d="m 32.77543,102.80005 v 15.00001 h 5 v -15.00001 z"
       fill="#ffffff"
       shaper:cutDepth="0.003"
       shaper:pathType="interior"
       stroke="#000000"
       vector-effect="non-scaling-stroke"
       id="path1143"
       style="fill:none;stroke:#ff0000;stroke-width:0.8;stroke-miterlimit:4;stroke-dasharray:none;stroke-opacity:1" />
    <circle
       style="fill:#000000;stroke-width:1.13417;stroke-dasharray:none"
       id="path4820"
       cx="110.409"
       cy="110.409"
       r="5" />
    <path
       d="m 118.3799,26.903798 c 1.01321,0.07977 1.33117,-0.601797 1.25346,-1.753192 l -0.075,-1.111171 c -0.0386,-0.57201 -0.66864,-1.052926 -2.10328,-1.180478 -45.992047,-3.8797 -79.969407,27.238873 -86.86435,50.096725 -0.258985,0.858576 -0.703559,2.059366 0.935573,2.70272 l 0.779024,0.305765 c 1.052236,0.412999 1.771104,1.112763 2.554022,-0.778072 13.622199,-32.899146 48.286177,-51.0564 83.520551,-48.282297 z"
       fill="#ffffff"
       shaper:cutDepth="0.003"
       shaper:pathType="interior"
       stroke="#000000"
       vector-effect="non-scaling-stroke"
       id="path14286"
       style="fill:none;stroke:#ff0000;stroke-width:0.8;stroke-miterlimit:4;stroke-dasharray:none;stroke-opacity:1"
       sodipodi:nodetypes="ssscsssss" />
    <path
       d="m 118.3799,193.7727 c 1.01321,-0.0798 1.33117,0.6018 1.25346,1.75319 l -0.075,1.11117 c -0.0386,0.57201 -0.66864,1.05293 -2.10328,1.18048 -45.992047,3.8797 -79.969407,-27.23889 -86.86435,-50.09675 -0.258985,-0.85858 -0.703559,-2.05937 0.935573,-2.70272 l 0.779024,-0.30577 c 1.052236,-0.413 1.771104,-1.11276 2.554022,0.77807 13.622199,32.89917 48.286177,51.05643 83.520551,48.28233 z"
       fill="#ffffff"
       shaper:cutDepth="0.003"
       shaper:pathType="interior"
       stroke="#000000"
       vector-effect="non-scaling-stroke"
       id="path14288"
       style="fill:none;stroke:#ff0000;stroke-width:0.8;stroke-miterlimit:4;stroke-dasharray:none;stroke-opacity:1"
       sodipodi:nodetypes="ssscsssss" />
    <path
       d="M 151.56782,64.414297 A 1.0237596,3.6506976 0 0 0 150.54406,60.7636 h -1.79158 a 1.0237596,3.6506976 0 0 0 -1.02376,3.650697 v 36.506983 a 1.0237596,3.6506976 0 0 0 1.02376,3.6507 h 1.79158 a 1.0237596,3.6506976 0 0 0 1.02376,-3.6507 z"
       fill="#ffffff"
       shaper:cutDepth="0.003"
       shaper:pathType="interior"
       stroke="#000000"
       vector-effect="non-scaling-stroke"
       id="path14290"
       style="fill:none;stroke:#ff0000;stroke-width:0.800002;stroke-miterlimit:4;stroke-dasharray:none;stroke-opacity:1" />
    <path
       d="m 151.56782,119.44766 a 1.0237596,3.6506976 0 0 0 -1.02376,-3.6507 h -1.79158 a 1.0237596,3.6506976 0 0 0 -1.02376,3.6507 v 36.507 a 1.0237596,3.6506976 0 0 0 1.02376,3.6507 h 1.79158 a 1.0237596,3.6506976 0 0 0 1.02376,-3.6507 z"
       fill="#ffffff"
       shaper:cutDepth="0.003"
       shaper:pathType="interior"
       stroke="#000000"
       vector-effect="non-scaling-stroke"
       id="path14292"
       style="fill:none;stroke:#ff0000;stroke-width:0.800002;stroke-miterlimit:4;stroke-dasharray:none;stroke-opacity:1" />
    <rect
       style="fill:#55ff13;fill-opacity:1;stroke:none;stroke-width:0.799999;stroke-dasharray:none;stroke-opacity:1"
       id="rect14343"
       width="4.1548719"
       height="3.2927761"
       x="70.830833"
       y="50.236416" />
  </g>
</svg>
